# xmcd
#
# Track frame offsets:
# 150
# 22137
# 40432
# 59380
# 79979
# 100156
# 125882
# 144513
# 169616
# 185568
#
# Disc length: 2753 seconds
#
#
# Revision: 1
# Processed by: cddbd v1.5.1PL0 Copyright (c) Steve Scherf et al.
# Submitted via: FreeRIP 2.60 
#
DISCID=910abf0a
DTITLE=Burak Demir - Dreamin' Istanbul
DYEAR=2003
DGENRE=Blues
TTITLE0=01-2012
TTITLE1=02-Langa Meyhaneleri
TTITLE2=03-Aman Aman
TTITLE3=04-Gelin
TTITLE4=05-Indigo City
TTITLE5=06-Kýnalýada Sonbahar
TTITLE6=07-Gelenexel
TTITLE7=08-Dreamin' Istanbul
TTITLE8=09-Bye
TTITLE9=10-Yeditepe Moonlight
EXTD=Burak Demir - Dreamin' Istanbul
EXTT0=
EXTT1=
EXTT2=
EXTT3=
EXTT4=
EXTT5=
EXTT6=
EXTT7=
EXTT8=
EXTT9=
PLAYORDER=
